PathFileType	4	(X/Y/Z)	/Users/niels/Desktop/University/Third Semester/Perception and Action/Exam/Gymnastics Motion Tracking/Code for Gym Tracking/Analyzed Data/Webcam_Backflip/id19_2_trajectory_Sports2D/id19_2_trajectory_Sports2D_px_person00.trc
DataRate	CameraRate	NumFrames	NumMarkers	Units	OrigDataRate	OrigDataStartFrame	OrigNumFrames
29.714285714285715	29.714285714285715	12	22	m	29.714285714285715	65	105
Frame#	Time	Hip			RHip			RKnee			RAnkle			RBigToe			RSmallToe			RHeel			LHip			LKnee			LAnkle			LBigToe			LSmallToe			LHeel			Neck			Head			Nose			RShoulder			RElbow			RWrist			LShoulder			LElbow			LWrist		
		X1	Y1	Z1	X2	Y2	Z2	X3	Y3	Z3	X4	Y4	Z4	X5	Y5	Z5	X6	Y6	Z6	X7	Y7	Z7	X8	Y8	Z8	X9	Y9	Z9	X10	Y10	Z10	X11	Y11	Z11	X12	Y12	Z12	X13	Y13	Z13	X14	Y14	Z14	X15	Y15	Z15	X16	Y16	Z16	X17	Y17	Z17	X18	Y18	Z18	X19	Y19	Z19	X20	Y20	Z20	X21	Y21	Z21	X22	Y22	Z22
65	2.1875	0.3698755520550645	-0.6665518479179154	0.0	0.36307962970201696	-0.659437026786801	0.0	0.36961960453677234	-0.8003007801468961	0.0	0.3782969058847473	-0.921627406335988	0.0	0.3243432214264165	-0.9487278155659516	0.0	0.32889993382484245	-0.9425350325543763	0.0	0.3912850437401019	-0.9424607754363755	0.0	0.3733541055506096	-0.6620974696723493	0.0	0.3807664181808146	-0.804978547316926	0.0	0.3892517645613655	-0.9363404436176275	0.0	0.33207628953117685	-0.9644845496631778	0.0	0.34598909714263765	-0.971587326461029	0.0	0.40000476350147474	-0.9577339418974585	0.0	0.3813568706814764	-0.48604918275887116	0.0	0.3654367580172404	-0.39853583111890667	0.0	0.3521867007900366	-0.44940548475510084	0.0	0.3895224022289198	-0.5070504619947097	0.0	0.3859981458952072	-0.5710405961717376	0.0	0.3362632876352356	-0.5526090118397365	0.0	0.38284719981679954	-0.5113547614218381	0.0	0.35307440717009286	-0.5945026964411323	0.0	0.2983035178579407	-0.5608546962408769	0.0
66	2.2211538461538463	0.3685704919779399	-0.6671571006252206	0.0	0.35999025174932786	-0.6602150145311667	0.0	0.36859775005040446	-0.8010371650902276	0.0	0.37803537893735295	-0.9217629476249706	0.0	0.3238234065578773	-0.9487401221162647	0.0	0.3279400465316158	-0.9426290166882143	0.0	0.39091631084295353	-0.9425720046734285	0.0	0.37334383853478653	-0.6628019794367236	0.0	0.3809383433967898	-0.805261492147631	0.0	0.38939959498810256	-0.936394920172869	0.0	0.33169991456020215	-0.9649413442941954	0.0	0.3455290443721815	-0.9722026175591755	0.0	0.3996609110364031	-0.9579581196979181	0.0	0.3794733856576438	-0.4862114777822873	0.0	0.36525497288757375	-0.3981143557869015	0.0	0.35174755226030957	-0.44971097748216	0.0	0.38183185088329885	-0.507243769556241	0.0	0.36978925100512977	-0.5748850242307919	0.0	0.323791675304078	-0.5512776526190477	0.0	0.38446008437205764	-0.5113663971198745	0.0	0.354296657801307	-0.5942926070900231	0.0	0.2971078698271528	-0.5601555626403797	0.0
67	2.254807692307692	0.367085899432097	-0.6674623073138393	0.0	0.3567516731924785	-0.6608096253258101	0.0	0.3673980708419089	-0.801556249954346	0.0	0.37774934566567425	-0.9218386622951925	0.0	0.3229308907207319	-0.9487096299693366	0.0	0.3268578438526171	-0.942532028172039	0.0	0.39032941473057736	-0.942505025107954	0.0	0.37334264989064453	-0.6633957802945162	0.0	0.3810055778563667	-0.8055345604024727	0.0	0.3896400934082795	-0.9365474841777526	0.0	0.33127402678389023	-0.9654394685085624	0.0	0.34505160325318074	-0.9727833004849554	0.0	0.39943603468361233	-0.9580621337063486	0.0	0.37761349200346334	-0.4862466767696159	0.0	0.36499012152464727	-0.39761645845311383	0.0	0.3511909664618518	-0.4498925495444734	0.0	0.37442880632487174	-0.5066759338052186	0.0	0.35469688935587335	-0.5731119856528335	0.0	0.31252235495045116	-0.5486159193148336	0.0	0.38575416292603804	-0.5111192664366143	0.0	0.3550237852964994	-0.5940814624713596	0.0	0.2957945958011474	-0.5593510389647802	0.0
68	2.2884615384615383	0.3655806044772314	-0.6674723649729882	0.0	0.35372850849887144	-0.6611221958131865	0.0	0.3660475520327547	-0.8017301517657476	0.0	0.3774869468268902	-0.9218617386482233	0.0	0.32194973192143167	-0.9487229900877806	0.0	0.3258544935825362	-0.9423998577194376	0.0	0.3896562987508957	-0.9423430816862802	0.0	0.3732313430116503	-0.663846372571347	0.0	0.38082773566936623	-0.8056540713594392	0.0	0.38993081729861384	-0.9367405351562976	0.0	0.3308823164002311	-0.965922398792533	0.0	0.3446772403279924	-0.9732537797515761	0.0	0.3993851090583582	-0.9580131231348686	0.0	0.37583375881325565	-0.48619859825431877	0.0	0.36462466795207077	-0.39709027552050286	0.0	0.3504518381188851	-0.44989695633439525	0.0	0.3679671367679203	-0.5055026232235901	0.0	0.3418404711496958	-0.5674586230611326	0.0	0.3031734313916268	-0.545515365208477	0.0	0.38656320468541666	-0.5107419056472979	0.0	0.3552492486077422	-0.5939090691146902	0.0	0.2943746171145649	-0.5585792563459615	0.0
69	2.3221153846153846	0.3641505484145267	-0.6672032247630084	0.0	0.3510320993129363	-0.6611506283093895	0.0	0.36446670989579094	-0.8015016601467987	0.0	0.37726053399430143	-0.9218398420651097	0.0	0.3210868336683672	-0.94886870959448	0.0	0.3250107151032635	-0.9423798791944434	0.0	0.3889775081243785	-0.9421710365742046	0.0	0.3729798599471559	-0.6641116838010054	0.0	0.38030185914784836	-0.8054925375177433	0.0	0.39024722011332436	-0.9369104604361871	0.0	0.3305582628677235	-0.9663682942231664	0.0	0.34447511479354	-0.973574186359529	0.0	0.39955287319777716	-0.9578383069425177	0.0	0.3741135729424846	-0.4861084843832823	0.0	0.3641127669324424	-0.3965723531868613	0.0	0.3495031730387135	-0.4497495623460406	0.0	0.3626640943170736	-0.5040426940439137	0.0	0.33180752671658914	-0.560531115626961	0.0	0.2960924817694668	-0.5428635066340689	0.0	0.38690797793482884	-0.5103846587525486	0.0	0.35508120487866524	-0.5937795588580816	0.0	0.29288056792017453	-0.5579510943192365	0.0
70	2.355769230769231	0.3628001577198186	-0.6666941558441177	0.0	0.34861736911914953	-0.6609700165160534	0.0	0.36252975182019465	-0.8008941791708131	0.0	0.3770476850022653	-0.921771690729914	0.0	0.32042158609522065	-0.9491820668352993	0.0	0.32431182966280153	-0.9425361946019257	0.0	0.3883091368055373	-0.9420112774460803	0.0	0.3726253893956009	-0.6641602455884301	0.0	0.3793586896976063	-0.8050247644300361	0.0	0.39056986035947816	-0.937014887075192	0.0	0.3303070931761877	-0.966782563273474	0.0	0.3444587082561269	-0.9737367302691018	0.0	0.39993469370712087	-0.9576064261048938	0.0	0.3724254374987391	-0.48599504221095896	0.0	0.3633844637638443	-0.39609205514737955	0.0	0.3483239147799395	-0.4495064033342225	0.0	0.35845094564320157	-0.5026504833682001	0.0	0.32481286252889097	-0.5547561872043831	0.0	0.29126097473782403	-0.5412832898646124	0.0	0.3868880504389893	-0.510127435160157	0.0	0.35466915786631	-0.5936666272947712	0.0	0.29138907313723417	-0.557551103186084	0.0
71	2.3894230769230766	0.36150128085843686	-0.6660101514951919	0.0	0.3464282826398984	-0.6606591675527849	0.0	0.3601213035554267	-0.7999710648380872	0.0	0.37682165626767433	-0.9216150436463743	0.0	0.31995785121425085	-0.949621164926945	0.0	0.32374499497215253	-0.942812002543582	0.0	0.387669663356936	-0.9417964204023864	0.0	0.3722213718821129	-0.6639861527030209	0.0	0.3779696143903527	-0.804319990938561	0.0	0.3908594262238055	-0.9370311943625911	0.0	0.33012984406986906	-0.9671441374584336	0.0	0.3446081009748864	-0.9737354311210299	0.0	0.4004565772201403	-0.9573569655564875	0.0	0.3707877258772254	-0.48586333836334483	0.0	0.36234987415900144	-0.39567245837842213	0.0	0.3468950282675472	-0.44920871589276434	0.0	0.3551981042211134	-0.5015949301542901	0.0	0.32084666818330976	-0.5517145931438069	0.0	0.2884849549683762	-0.5410386051007656	0.0	0.38656070403013393	-0.5099503539399339	0.0	0.35414810266140634	-0.5935357273814938	0.0	0.2900226218976683	-0.5574163228241743	0.0
72	2.423076923076923	0.3602579178811518	-0.6652570777180825	0.0	0.34445018625515683	-0.6602963654132753	0.0	0.3571510960946818	-0.7988398159964697	0.0	0.3765776805427764	-0.9212962729460579	0.0	0.31970222053250535	-0.9500921425503976	0.0	0.32334494582774437	-0.9430832951148009	0.0	0.38712319935316764	-0.9413990318957296	0.0	0.37178064599363364	-0.6636526924893585	0.0	0.37616119292465083	-0.8035011624323709	0.0	0.39107148314173545	-0.9369756180514179	0.0	0.33000956525408565	-0.967392540137343	0.0	0.3448782791627156	-0.9735767346066279	0.0	0.4010035094094232	-0.9570943796200969	0.0	0.3692649457177888	-0.4857200038381996	0.0	0.36089992942488464	-0.3953201461185329	0.0	0.3452319521151535	-0.44889447806157057	0.0	0.3528504274806603	-0.5010167364094609	0.0	0.31980367669561527	-0.5519544424832675	0.0	0.2876190161393452	-0.5420687270387411	0.0	0.38592664607572236	-0.5097786458747294	0.0	0.35362334622993974	-0.5933722039107028	0.0	0.2888987443713736	-0.5575250112565961	0.0
73	2.456730769230769	0.35911335082836027	-0.6645710000276445	0.0	0.34269274409154343	-0.6599652041696419	0.0	0.3535031791586167	-0.797637793186388	0.0	0.37631437604753	-0.9207110559360888	0.0	0.31968008858257224	-0.9504704670840152	0.0	0.3231658044955908	-0.9432310040966503	0.0	0.38674846155268944	-0.9406495517902913	0.0	0.371286211441655	-0.6632959080280129	0.0	0.3740179002139132	-0.8027114275725263	0.0	0.39117279949717476	-0.9369276997726574	0.0	0.32990019605187176	-0.9674820492168623	0.0	0.34519486127222854	-0.9733119669912833	0.0	0.40148265322976096	-0.9568425496938325	0.0	0.3679296874527684	-0.48557478154821665	0.0	0.35893735598859106	-0.39502731762488114	0.0	0.3433919120072166	-0.4486224295293444	0.0	0.35138086960817105	-0.5009216588384944	0.0	0.32136190442831525	-0.5549817507504163	0.0	0.2884767178627352	-0.5440418248047634	0.0	0.3849903031153334	-0.5095624951090278	0.0	0.35315145352199506	-0.5931964844665454	0.0	0.28805060541013533	-0.5578091082500684	0.0
74	2.4903846153846154	0.3581336210778334	-0.6640174886547694	0.0	0.34116502068708554	-0.6596903039278342	0.0	0.34897570363633035	-0.7964377379952141	0.0	0.3760059688155146	-0.9196890998441944	0.0	0.3199075695941531	-0.95062946621536	0.0	0.32325581162653355	-0.9431639418043588	0.0	0.38657678816530533	-0.939320636248113	0.0	0.370780100023737	-0.6630303914308594	0.0	0.3716811364239568	-0.8020647418639402	0.0	0.3911365633771297	-0.9369927483635191	0.0	0.32978160631106024	-0.9674224106058861	0.0	0.34548301912179397	-0.9730204712450672	0.0	0.40186545618398334	-0.9566486629025563	0.0	0.3668123054425848	-0.48542462005405385	0.0	0.35644930705584604	-0.39481448859790946	0.0	0.34144969992091806	-0.4484618632217631	0.0	0.3506527968015708	-0.5011812794939792	0.0	0.3247616919313289	-0.559503253220134	0.0	0.29056644828612094	-0.546423896908992	0.0	0.38382053102132246	-0.5093117151712537	0.0	0.3527165534226783	-0.593050791568375	0.0	0.2873903818274616	-0.5581812329898836	0.0
75	2.5240384615384612	0.35738555460249627	-0.6635381965831336	0.0	0.33988782428619035	-0.6594261245311256	0.0	0.34334202196348435	-0.7952297336997137	0.0	0.3755922777088386	-0.9180162086990348	0.0	0.32036163406505025	-0.950486733130031	0.0	0.3236317942893148	-0.9428430675327044	0.0	0.3865552839821086	-0.9371810054607237	0.0	0.3703886692166117	-0.6628739107835158	0.0	0.36935407077328375	-0.8016314876591817	0.0	0.39096715204332216	-0.9372231495940057	0.0	0.32970759290532	-0.9672615184820444	0.0	0.34572405148327695	-0.9727674142975735	0.0	0.40216497087828884	-0.95654338967278	0.0	0.3658744666664928	-0.48525155237567474	0.0	0.3535560397773485	-0.39474221241907	0.0	0.3394583398314643	-0.44845016070642413	0.0	0.35039347763732825	-0.5015918494671797	0.0	0.3288675334268199	-0.5640185003631395	0.0	0.2930553681333711	-0.5486470089182419	0.0	0.38252912896251434	-0.5090620525472657	0.0	0.35225874073288016	-0.5929864995997802	0.0	0.28675718268829503	-0.5585771475877342	0.0
76	2.5576923076923075	0.35688788698619955	-0.6630438071542434	0.0	0.33890629995957894	-0.6591201731968632	0.0	0.3365508522405617	-0.7940143747037351	0.0	0.37496249188240505	-0.9155663914833007	0.0	0.32095038399603315	-0.9500352548882884	0.0	0.3242095616476217	-0.9423088191636085	0.0	0.38654535926019856	-0.934161699754547	0.0	0.3702244267581253	-0.6627628925277761	0.0	0.36727759706343577	-0.8014669309852022	0.0	0.3907298601188044	-0.9375744941691231	0.0	0.3297693199578324	-0.9670618710359068	0.0	0.34597328958288853	-0.9725990845360319	0.0	0.4023902688426723	-0.9565230983767813	0.0	0.3650334657736772	-0.48503273172697137	0.0	0.3504614640267387	-0.39485072743111954	0.0	0.3374110834597095	-0.4485619587444094	0.0	0.35031251813983655	-0.5019684074156301	0.0	0.33260330310397745	-0.5674414155574796	0.0	0.2951090506623912	-0.550321602997749	0.0	0.3811893305664006	-0.5088361677511658	0.0	0.35172195787214555	-0.5930601228943341	0.0	0.2860178136310307	-0.5589737319892613	0.0
